<svg xmlns="http://www.w3.org/2000/svg"
shape-rendering="geometricPrecision"
width="4000" height="4000" viewBox="0 0 606 606"><rect width="100%" height="100%" fill="#FFFFFF" />
  <metadata>null</metadata>

<path d="
M 26.818 420.808
C 28.819 420.06 31.527 420.888 33.653 420.594
C 35.384 429.785 39.662 438.533 42.028 447.566
C 42.598 447.156 42.628 446.175 42.775 445.539
C 43.119 444.049 43.689 442.619 44.237 441.195
C 45.882 436.922 47.237 432.506 48.614 428.14
C 49.369 425.746 49.875 423.179 50.964 420.909
C 52.283 420.211 54.432 420.674 55.887 420.671
C 57.498 422.928 58.075 426.355 58.965 428.971
C 61.088 435.208 63.001 441.546 65.264 447.731
C 65.545 447.862 65.94 445.498 66.078 445.085
C 66.744 443.093 67.284 441.058 67.948 439.066
C 69.955 433.046 71.476 426.867 73.424 420.838
C 74.594 420.189 78.728 420.279 79.966 420.843
C 77.882 429.793 74.553 438.878 71.447 447.542
C 70.644 449.782 69.784 451.998 69.031 454.256
C 68.741 455.125 68.515 456.689 67.896 457.358
C 66.145 457.371 64.346 457.52 62.603 457.4
C 60.308 451.13 58.114 444.785 56.051 438.437
C 55.341 436.25 54.876 432.743 53.546 430.938
C 51.68 436.296 49.768 441.668 47.933 447.044
C 46.791 450.391 45.967 454.216 44.338 457.354
C 42.567 457.53 40.768 457.396 38.992 457.503
C 37.435 453.699 36.395 449.54 35.127 445.619
C 33.573 440.816 31.812 436.081 30.27 431.274
C 29.158 427.81 28.369 424.104 26.818 420.808 Z"
opacity="1" fill="rgb(14,24,51)" fill-rule="evenodd" />
<path d="
M 51.877 199.435
C 57.609 199.499 63.336 199.434 69.068 199.443
C 71.893 199.448 75.075 199.091 77.856 199.575
C 86.161 227.792 93.991 256.236 102.844 284.292
C 105.13 291.536 106.944 298.924 109.199 306.175
C 109.764 307.99 110.199 309.848 110.729 311.673
C 110.914 312.31 110.971 313.206 111.502 313.621
C 112.072 310.31 113.591 306.97 114.675 303.791
C 116.154 299.455 117.514 295.078 119.06 290.766
C 123.473 278.455 127.327 265.938 131.635 253.589
C 135.736 241.838 139.589 229.982 143.422 218.14
C 144.755 214.023 146.116 209.914 147.449 205.796
C 148.132 203.689 148.559 201.43 149.549 199.445
C 155.671 198.752 162.017 200.093 168.115 199.306
C 168.998 200.796 169.333 202.825 169.898 204.468
C 171.28 208.484 172.557 212.535 173.921 216.558
C 178.092 228.86 182.382 241.137 186.387 253.492
C 188.171 258.997 190.056 264.466 191.86 269.964
C 192.609 272.245 194.144 275.042 194.301 277.424
C 193.321 278.613 191.404 279.351 190.114 280.196
C 186.507 282.561 182.748 284.645 178.935 286.659
C 177.708 287.307 176.366 287.846 175.211 288.608
C 174.892 288.818 174.266 289.379 173.92 289.105
C 173.263 285.386 171.392 281.696 170.199 278.114
C 167.606 270.326 165.139 262.503 162.47 254.739
C 161.539 252.03 160.711 249.276 159.753 246.58
C 159.575 246.08 159.122 244.18 158.769 244.192
C 158.141 248.049 156.296 251.857 155.106 255.59
C 152.051 265.177 148.689 274.66 145.525 284.214
C 140.026 300.821 134.518 317.436 128.806 333.971
C 126.413 340.9 124.39 347.973 121.727 354.805
C 120.01 355.499 116.874 354.885 115.005 354.877
C 109.767 354.854 104.433 354.668 99.208 355.034
C 98.562 354.673 98.403 353.381 98.193 352.681
C 97.448 350.19 96.756 347.67 95.973 345.192
C 92.898 335.461 90.142 325.624 87.006 315.916
C 78.601 289.901 70.906 263.622 63.066 237.43
C 60.878 230.121 58.58 222.847 56.389 215.538
C 54.817 210.293 53.698 204.644 51.494 199.629
C 51.622 199.565 51.749 199.5 51.877 199.435 Z"
opacity="1" fill="rgb(16,29,55)" fill-rule="evenodd" />
<path d="
M 90.97 436.601
C 91.594 431.614 94.256 426.603 98.338 423.621
C 106.47 417.68 118.772 419.163 124.904 427.252
C 126.253 429.033 127.331 431.059 127.969 433.204
C 128.812 436.035 129.033 438.996 128.651 441.924
C 126.559 457.966 104.974 463.633 94.826 451.338
C 93.454 449.676 92.43 447.722 91.789 445.666
C 90.872 442.72 90.586 439.665 90.97 436.601 Z
M 97.443 437.102
C 97.151 439.422 97.397 441.893 98.139 444.115
C 100.93 452.469 111.302 455.053 117.942 449.491
C 120.487 447.358 121.821 444.221 122.234 440.984
C 122.94 435.451 120.549 429.472 115.369 426.914
C 107.433 422.996 98.516 428.6 97.443 437.102 Z"
opacity="1" fill="rgb(13,23,52)" fill-rule="evenodd" />
<path d="
M 125.612 491.687
C 126.53 491.566 127.474 491.572 128.383 491.417
C 128.343 489.793 128.157 488.032 128.943 486.527
C 130.019 484.467 133.523 483.818 135.372 485.113
C 135.654 485.631 135.726 486.083 135.679 486.667
C 134.23 487.181 132.725 486.269 131.223 487.05
C 130.641 487.92 130.156 490.434 130.455 491.406
C 131.333 491.28 134.379 490.842 134.945 491.701
C 135.108 491.949 135.068 492.811 135.094 493.059
C 133.758 493.18 132.218 493.218 130.894 493.043
C 130.426 494.218 130.634 495.723 130.623 496.987
C 130.596 500.187 131.213 504.309 130.346 507.396
C 129.728 507.399 129.112 507.424 128.494 507.434
C 128.185 506.208 128.447 504.768 128.45 503.506
C 128.458 500.113 128.82 496.495 128.301 493.149
C 126.976 493.171 125.971 493.002 125.612 491.687 Z"
opacity="1" fill="rgb(7,5,25)" fill-rule="evenodd" />
<path d="
M 136.472 501.091
C 137.927 497.486 141.469 497.204 144.84 497.695
C 145.754 497.828 146.847 498.369 147.752 498.299
C 147.99 494.702 144.599 492.713 141.382 493.219
C 139.949 493.444 139.044 494.328 137.515 494.176
C 138.62 489.491 146.573 490.357 148.835 493.66
C 150.69 496.368 149.641 501.424 149.436 504.49
C 149.366 505.538 149.65 506.557 149.408 507.6
C 149.007 507.707 148.633 507.627 148.219 507.642
C 148.09 507.396 147.575 505.736 147.571 505.736
C 145.956 506.634 144.422 507.61 142.509 507.715
C 138.736 507.922 135.562 504.949 136.472 501.091 Z
M 138.407 501.547
C 137.15 506.666 144.826 506.766 147.135 503.695
C 147.723 502.913 147.355 501.402 147.171 500.545
C 144.804 498.637 139.922 498.527 138.407 501.547 Z"
opacity="1" fill="rgb(5,6,24)" fill-rule="evenodd" />
<path d="
M 143.156 420.665
C 145.12 420.687 147.092 420.705 149.058 420.694
C 156.661 420.652 168.151 418.904 171.859 427.531
C 172.364 428.706 172.737 429.967 172.853 431.245
C 172.989 432.747 172.965 434.332 172.595 435.802
C 171.985 438.227 170.532 440.356 168.52 441.825
C 167.627 442.477 165.141 443.082 164.831 444.042
C 168.153 448.246 170.922 452.962 174.158 457.234
C 173.701 457.465 172.792 457.294 172.285 457.317
C 170.862 457.38 167.963 457.852 166.738 457.231
C 163.792 453.16 161.048 448.884 157.982 444.909
C 157.34 444.517 156.356 444.712 155.591 444.727
C 153.693 444.764 150.993 444.242 149.391 445.331
C 149.731 449.139 149.545 453.405 149.294 457.229
C 147.268 457.169 145.229 457.197 143.202 457.185
C 143.074 449.462 143.124 441.728 143.117 434.003
C 143.112 429.58 142.808 425.072 143.156 420.665 Z
M 149.318 426.685
C 149.374 430.787 149.457 434.939 149.35 439.04
C 152.592 439.161 155.895 439.247 159.141 439.01
C 160.914 438.88 162.725 438.895 164.28 437.912
C 167.817 435.677 167.462 429.398 163.92 427.352
C 162.356 426.448 160.195 426.469 158.438 426.481
C 155.404 426.501 152.346 426.477 149.318 426.685 Z"
opacity="1" fill="rgb(15,25,52)" fill-rule="evenodd" />
<path d="
M 153.968 486.116
C 153.989 485.831 154.011 485.546 154.033 485.261
C 154.999 485.18 155.903 485.106 156.64 485.816
C 156.817 486.546 156.835 487.139 156.605 487.861
C 155.964 488.264 155.443 488.443 154.686 488.42
C 154.11 487.741 153.939 487.001 153.968 486.116 Z"
opacity="1" fill="rgb(7,9,29)" fill-rule="evenodd" />
<path d="
M 154.277 491.934
C 154.355 491.783 154.433 491.632 154.512 491.481
C 155.123 491.366 155.814 491.213 156.417 491.395
C 156.303 495.423 156.34 499.459 156.238 503.489
C 156.221 504.14 156.582 507.105 155.818 507.421
C 155.525 507.543 154.792 507.465 154.46 507.493
C 153.801 506.318 154.207 504.32 154.206 502.993
C 154.202 499.329 154.007 495.585 154.277 491.934 Z"
opacity="1" fill="rgb(5,10,35)" fill-rule="evenodd" />
<path d="
M 160.965 492.587
C 161.11 492.084 161.047 492.387 161.092 491.666
C 161.836 491.382 162.546 491.344 163.323 491.518
C 163.238 492.258 163.256 493.004 163.371 493.741
C 163.811 494.24 164.304 493.585 164.704 493.184
C 165.923 491.962 167.811 489.912 169.385 491.964
C 169.577 492.213 169.85 492.516 169.877 492.836
C 168.862 493.006 168.034 493.199 167.132 493.706
C 165.698 494.513 164.228 495.584 163.439 497.08
C 161.853 500.093 163.568 504.179 162.804 507.379
C 162.317 507.507 161.838 507.478 161.336 507.474
C 160.585 506.083 160.902 504.036 160.902 502.501
C 160.904 499.242 160.611 495.826 160.965 492.587 Z"
opacity="0.996" fill="rgb(3,4,17)" fill-rule="evenodd" />
<path d="
M 176.234 511.384
C 177.197 511.222 178.183 511.088 179.109 510.774
C 180.416 509.788 179.88 506.967 179.895 505.498
C 179.943 500.852 179.714 496.169 180.01 491.538
C 180.562 491.186 181.212 491.157 181.86 491.283
C 182.595 495.728 182.197 500.499 182.187 504.992
C 182.182 506.941 182.567 509.46 181.67 511.271
C 180.766 513.094 175.756 514.451 176.234 511.384 Z"
opacity="1" fill="rgb(2,2,27)" fill-rule="evenodd" />
<path d="
M 178.159 300.359
C 182.549 297.533 187.693 295.853 192.121 292.968
C 194.024 291.728 196.278 289.056 198.53 288.685
C 201.598 296.818 204.577 305.547 206.565 314.016
C 207.062 313.979 207.229 312.712 207.304 312.34
C 207.621 310.766 208.082 309.152 208.57 307.62
C 210.762 300.738 212.649 293.754 214.786 286.853
C 221.011 266.755 226.4 246.402 232.489 226.263
C 234.396 219.957 236.101 213.58 237.967 207.258
C 238.71 204.741 238.969 201.558 240.382 199.333
C 246.087 199.224 251.798 199.266 257.505 199.265
C 260.406 199.264 263.653 198.859 266.511 199.343
C 264.943 205.683 262.718 211.932 260.8 218.18
C 258.002 227.295 255.271 236.431 252.487 245.55
C 246.028 266.707 239.729 287.923 233.102 309.024
C 229.705 319.839 226.293 330.674 223.069 341.542
C 222.155 344.622 221.237 347.7 220.323 350.78
C 219.998 351.877 219.748 353.963 219.01 354.828
C 216.316 355.345 212.948 354.87 210.187 354.876
C 205.657 354.886 201.028 355.296 196.514 355.019
C 191.438 342.777 187.966 329.771 183.574 317.27
C 182.198 313.352 180.894 309.394 179.622 305.442
C 179.115 303.866 178.056 302.006 178.159 300.359 Z"
opacity="1" fill="rgb(16,29,55)" fill-rule="evenodd" />
<path d="
M 179.869 485.304
C 180.835 485.124 181.692 485.182 182.509 485.759
C 182.83 486.464 182.782 487.366 182.195 487.912
C 181.497 488.237 180.828 488.433 180.11 488.062
C 179.679 487.132 179.7 486.296 179.869 485.304 Z"
opacity="1" fill="rgb(20,20,34)" fill-rule="evenodd" />
<path d="
M 183.669 420.691
C 190.776 420.629 197.897 420.746 205.008 420.757
C 207.004 420.76 209.005 420.816 211 420.762
C 211.71 420.742 212.772 420.548 213.402 420.852
C 213.322 422.633 212.981 424.925 213.284 426.672
C 209.498 426.952 205.666 426.511 201.877 426.822
C 202.034 436.93 201.71 447.064 201.846 457.179
C 199.795 457.016 197.66 457.472 195.616 457.199
C 195.715 447.157 194.976 436.953 195.506 426.933
C 192.752 426.483 189.784 426.742 186.997 426.723
C 186.013 426.716 184.67 427.003 183.766 426.624
C 183.803 424.654 183.732 422.66 183.669 420.691 Z"
opacity="1" fill="rgb(15,25,52)" fill-rule="evenodd" />
<path d="
M 185.913 498.084
C 186.103 496.888 186.564 495.645 187.25 494.65
C 192.323 487.28 203.421 492.428 201.965 500.972
C 201.772 502.102 201.38 503.112 200.769 504.083
C 195.979 511.694 184.567 506.545 185.913 498.084 Z
M 188.38 497.568
C 188.008 499.128 188.022 501.117 188.754 502.57
C 191.436 507.897 198.689 505.722 199.679 500.411
C 201.045 493.09 190.172 490.05 188.38 497.568 Z"
opacity="1" fill="rgb(5,7,22)" fill-rule="evenodd" />
<path d="
M 296.48 199.219
C 290.879 199.144 284.957 198.728 279.386 199.297
C 278.467 198.459 278.545 196.34 278.143 195.209
C 277.363 193.02 274.781 189.785 272.579 188.886
C 270.976 188.232 268.72 188.644 267.01 188.628
C 263.176 188.59 259.342 188.583 255.507 188.573
C 242.174 188.541 228.84 188.654 215.507 188.683
C 211.907 188.691 208.306 188.719 204.706 188.711
C 200.944 188.703 197.938 188.917 194.795 186.523
C 188.343 181.608 190.07 168.265 198.978 167.231
C 202.954 166.769 207.162 167.118 211.161 167.149
C 217.442 167.198 223.727 167.126 230.008 167.116
C 251.738 167.085 273.468 167.17 295.197 167.225
C 295.089 175.312 295.147 183.449 295.607 191.523
C 295.712 193.376 295.835 195.234 295.911 197.089
C 295.934 197.673 295.842 198.939 296.48 199.219 Z"
opacity="1" fill="rgb(236,103,29)" fill-rule="evenodd" />
<path d="
M 205.49 499.124
C 206.2 494.443 205.099 489.523 205.944 484.861
C 206.63 484.684 207.308 484.626 207.95 484.942
C 207.804 487.809 208.275 490.868 207.8 493.694
C 207.92 494.14 209.162 492.667 209.473 492.392
C 210.623 491.376 211.976 490.876 213.511 490.837
C 217.263 490.743 220.465 494.152 221.038 497.687
C 222.3 505.466 213.104 511.71 207.593 504.771
C 207.162 505.591 207.307 508.41 205.776 507.643
C 205.366 504.933 205.348 501.863 205.49 499.124 Z
M 207.968 497.096
C 207.716 498.902 207.513 501.423 208.648 502.969
C 211.508 506.861 216.693 506.342 218.397 501.739
C 220.611 495.759 213.826 489.823 208.988 495.007
C 208.54 495.654 208.192 496.341 207.968 497.096 Z"
opacity="1" fill="rgb(8,8,25)" fill-rule="evenodd" />
<path d="
M 223.246 503.714
C 225.944 503.997 227.887 506.14 230.76 505.822
C 232.879 505.588 234.3 503.93 233.15 501.814
C 230.823 499.334 222.38 499.812 224.348 494.371
C 225.618 490.861 230.017 490.482 233.018 491.675
C 233.655 491.929 236.141 493.355 235.077 494.264
C 233.517 494.593 231.912 493.112 230.306 493.007
C 228.511 492.891 224.667 494.414 227.093 496.661
C 229.926 499.284 237.561 498.663 235.443 504.506
C 233.276 509.25 224.514 508.904 223.246 503.714 Z"
opacity="1" fill="rgb(7,6,20)" fill-rule="evenodd" />
<path d="
M 226.912 420.778
C 228.961 420.433 231.102 420.846 233.169 420.711
C 233.503 424.252 233.227 427.94 233.245 431.498
C 233.252 432.913 232.919 434.773 233.359 436.107
C 237.59 435.86 241.84 435.925 246.076 435.954
C 247.036 435.96 250.121 436.484 250.793 435.909
C 250.851 430.87 251.108 425.729 250.731 420.701
C 252.876 420.509 255.031 420.655 257.182 420.644
C 256.838 426.206 257.212 431.917 257.2 437.499
C 257.185 444.052 256.812 450.746 257.249 457.284
C 255.218 457.134 253.061 457.158 251.029 457.288
C 250.509 456.826 250.91 454.279 250.906 453.502
C 250.888 449.688 250.884 445.866 250.906 442.058
C 245.28 441.606 239.015 441.399 233.399 441.982
C 232.859 443.156 233.234 445.194 233.23 446.498
C 233.218 450.061 233.041 453.692 233.242 457.246
C 231.255 457.03 229.087 457.155 227.084 457.183
C 225.996 445.113 227.785 432.85 226.912 420.778 Z"
opacity="1" fill="rgb(13,24,51)" fill-rule="evenodd" />
<path d="
M 239.054 505.124
C 238.996 504.6 238.99 504.915 239.21 504.193
C 240.056 504.142 240.829 504.114 241.668 504.204
C 241.529 506.114 241.561 508.547 240.789 510.319
C 240.429 511.144 239.373 511.683 238.639 511.136
C 239.21 508.817 239.18 507.506 239.054 505.124 Z"
opacity="1" fill="rgb(18,21,33)" fill-rule="evenodd" />
<path d="
M 251.191 491.758
C 251.712 491.632 253.735 491.886 254.044 491.523
C 254.11 489.466 253.898 486.749 255.777 485.351
C 257.328 484.198 262.194 483.742 261.515 486.845
C 260.042 487.039 258.653 486.676 257.191 487.042
C 256.353 488.4 256.102 489.969 256.26 491.557
C 258.053 491.47 260.32 491.056 259.909 493.432
C 258.7 493.583 257.485 493.608 256.282 493.801
C 256.148 496.861 256.226 499.928 256.195 502.989
C 256.182 504.358 256.399 506.117 255.827 507.384
C 255.53 507.392 254.708 507.556 254.473 507.41
C 253.724 506.941 254.069 504.467 254.062 503.699
C 254.041 501.313 254.09 498.931 254.059 496.541
C 254.046 495.554 254.261 494.522 253.948 493.565
C 252.508 493.328 251.586 493.264 251.191 491.758 Z"
opacity="0.996" fill="rgb(3,5,19)" fill-rule="evenodd" />
<path d="
M 261.467 497.6
C 261.813 496.289 262.134 495.239 262.988 494.154
C 263.835 493.075 264.785 492.017 266.035 491.407
C 271.764 488.614 276.66 494.85 276.671 500.122
C 273.786 500.611 270.44 500.267 267.515 500.202
C 266.274 500.175 264.353 499.761 263.326 500.49
C 264.062 503.977 267.62 506.823 271.252 505.573
C 272.631 505.098 274.271 503.222 275.855 504.049
C 275.788 504.952 274.989 505.478 274.33 506.014
C 272.342 507.63 269.616 508.212 267.149 507.439
C 263.071 506.161 261.113 501.57 261.467 497.6 Z
M 263.454 497.6
C 263.411 497.828 263.369 498.055 263.326 498.282
C 266.957 498.423 270.628 498.181 274.264 498.188
C 274.335 497.587 273.822 496.926 273.596 496.386
C 272.466 493.679 270.016 491.974 267.062 493.169
C 265.002 494.003 264.343 495.783 263.454 497.6 Z"
opacity="1" fill="rgb(7,6,19)" fill-rule="evenodd" />
<path d="
M 279.386 199.297
C 284.957 198.728 290.879 199.144 296.48 199.219
C 302.319 199.13 308.19 199.487 314.025 199.229
C 322.168 199.297 330.32 199.277 338.464 199.327
C 339.577 199.678 340.862 199.443 342.01 199.423
C 344.37 199.381 346.727 199.377 349.088 199.374
C 349.874 199.372 352.392 198.899 352.818 199.501
C 352.692 237.172 353.074 274.829 353.12 312.502
C 353.132 322.668 353.137 332.835 353.155 343.001
C 353.159 345.637 353.154 348.271 353.115 350.907
C 353.098 352.064 353.42 353.552 352.8 354.593
C 346.875 354.77 340.931 354.688 335 354.673
C 332.965 354.668 329.616 355.342 327.744 354.666
C 327.629 326.281 327.815 297.89 327.76 269.503
C 327.74 259.17 327.721 248.836 327.714 238.502
C 327.71 233.614 327.348 228.581 327.667 223.713
C 314.78 223.723 301.891 223.627 289.003 223.643
C 283.38 223.649 277.691 223.369 272.076 223.629
C 275.175 215.797 276.498 207.23 279.386 199.297 Z"
opacity="1" fill="rgb(16,29,55)" fill-rule="evenodd" />
<path d="
M 278.15 491.271
C 280.105 490.753 280.661 492.327 281.126 493.959
C 282.042 497.172 283.141 500.326 284.038 503.543
C 284.97 503.714 285.242 501.222 285.455 500.551
C 286.266 497.998 287.098 495.459 287.94 492.916
C 288.272 491.915 288.712 490.628 289.996 491
C 292.295 494.586 293.207 499.597 294.315 503.663
C 294.679 504.13 295.02 503.247 295.127 502.913
C 295.476 501.829 295.703 500.691 295.999 499.59
C 296.705 496.97 297.421 493.414 299.093 491.238
C 299.758 491.248 300.303 491.172 300.905 491.48
C 299.553 495.382 298.259 499.322 296.817 503.189
C 296.287 504.61 296.162 506.493 295.284 507.731
C 294.744 507.906 294.357 507.862 293.854 507.613
C 292.214 504.989 291.56 501.218 290.657 498.27
C 290.437 497.553 290.135 494.94 289.251 495.638
C 288.145 498.49 287.315 501.444 286.331 504.34
C 285.979 505.377 285.786 506.679 285.17 507.584
C 284.726 507.838 284.264 507.677 283.778 507.621
C 282.532 506.258 282.328 503.939 281.757 502.226
C 280.552 498.607 278.876 495.017 278.15 491.271 Z"
opacity="1" fill="rgb(5,7,28)" fill-rule="evenodd" />
<path d="
M 290.067 420.598
C 299.919 420.59 309.817 420.865 319.666 420.601
C 320.469 421.846 319.788 424.918 319.853 426.432
C 317.11 426.268 314.228 426.379 311.489 426.566
C 310.374 426.642 308.937 426.292 308.087 427.03
C 307.498 432.645 308.119 438.552 308.11 444.202
C 308.103 448.344 307.473 453.133 308.199 457.2
C 306.141 457.107 304.063 457.177 302.004 457.25
C 302.075 450.347 301.953 443.409 301.931 436.499
C 301.922 433.554 302.628 429.516 301.754 426.709
C 297.969 426.919 293.962 426.88 290.178 426.64
C 290.068 424.63 290.103 422.611 290.067 420.598 Z"
opacity="1" fill="rgb(16,27,53)" fill-rule="evenodd" />
<path d="
M 302.422 497.585
C 303.794 492.196 310.398 488.56 314.918 493.054
C 317.057 495.18 317.028 497.339 317.555 500.084
C 313.509 501.363 308.504 498.955 304.526 500.411
C 305.568 503.73 307.9 506.617 311.825 505.552
C 313.285 505.155 315.198 502.696 316.675 504.145
C 316.696 504.957 315.953 505.559 315.369 506.034
C 313.618 507.456 311.293 508.102 309.056 507.72
C 304.622 506.964 301.939 501.786 302.422 497.585 Z
M 304.905 496.537
C 304.758 497.091 304.651 497.616 304.567 498.187
C 308.084 498.717 311.831 498.118 315.371 498.314
C 315.687 495.74 312.249 492.605 309.836 492.786
C 307.544 492.957 305.959 494.633 304.905 496.537 Z"
opacity="0.996" fill="rgb(5,6,21)" fill-rule="evenodd" />
<path d="
M 338.464 199.327
C 330.32 199.277 322.168 199.297 314.025 199.229
C 306.388 197.476 305.699 188.176 305.383 181.859
C 304.706 168.304 304.772 153.329 308.137 140.109
C 309.41 135.109 311.783 128.321 316.675 125.705
C 318.021 124.985 319.375 125.419 320.72 125.905
C 323.769 127.007 326.735 128.306 328.747 130.953
C 331.269 134.27 332.374 138.313 333.878 142.131
C 335.307 145.759 337.061 149.303 338.767 152.808
C 340.364 156.088 341.908 159.347 344.897 161.581
C 350.228 165.565 356.499 168.587 362.319 171.786
C 366.471 174.068 370.315 175.105 371.306 180.268
C 370.614 180.297 369.843 179.787 369.195 179.585
C 367.236 178.975 365.287 178.371 363.266 177.982
C 356.753 176.728 350.591 175.309 344.321 173.125
C 341.153 172.021 337.536 170.856 335.009 168.557
C 328.195 162.354 324.348 153.272 318.381 146.499
C 320.225 151.755 323.684 156.989 326.909 161.511
C 328.522 163.772 331.045 166.186 332.103 168.754
C 332.496 169.708 332.242 170.867 332.165 171.859
C 332 173.97 331.893 176.111 331.63 178.21
C 332.332 178.565 333.318 178.292 334.087 178.287
C 336.226 178.272 338.364 178.225 340.502 178.19
C 347.69 178.071 354.881 178.287 362.013 179.123
C 364.925 179.464 368.517 179.315 370.896 181.372
C 374.89 184.825 373.359 191.685 372.854 196.208
C 371.39 209.32 368.75 222.3 367.34 235.42
C 367.2 236.722 366.63 238.674 367.051 239.944
C 367.849 242.348 371.357 244.514 373.4 245.749
C 375.57 247.061 380.405 248.096 379.649 251.41
C 378.757 253.144 375.568 252.784 373.946 252.693
C 369.838 252.461 365.814 250.911 361.809 250.045
C 359.877 249.627 357.357 249.451 355.908 247.938
C 355.199 244.111 356.606 239.437 356.638 235.51
C 356.707 227.008 356.444 218.494 356.377 209.992
C 356.34 205.349 356.875 200.275 356.17 195.685
C 351.663 196.641 347.106 197.185 342.575 197.995
C 341.01 198.275 340.079 199.338 338.464 199.327 Z"
opacity="1" fill="rgb(122,123,124)" fill-rule="evenodd" />
<path d="
M 313.387 105.078
C 314.039 102.435 314.782 99.964 316.574 97.833
C 320.886 92.706 329.365 91.518 334.758 95.647
C 338.486 98.501 338.503 102.159 340.571 105.931
C 342.424 106.442 344.488 105.947 346.298 106.598
C 346.429 107.091 346.571 107.717 346.307 108.185
C 339.248 108.78 332.095 108.647 325.008 108.726
C 321.18 108.769 316.894 109.394 313.116 108.782
C 313.036 107.513 313.164 106.327 313.387 105.078 Z"
opacity="1" fill="rgb(127,128,130)" fill-rule="evenodd" />
<path d="
M 314.377 111.392
C 319.598 110.17 325.662 110.818 330.995 110.822
C 333.241 110.823 336.303 110.308 338.43 111.053
C 338.554 116.64 335.995 125.14 329.061 125.131
C 327.089 125.129 325.125 124.435 323.37 123.594
C 321.878 122.879 320.388 122.143 319.134 121.043
C 316.235 118.496 315.417 114.919 314.377 111.392 Z"
opacity="1" fill="rgb(122,124,127)" fill-rule="evenodd" />
<path d="
M 320.831 491.958
C 321.362 491.346 322.074 491.453 322.83 491.594
C 322.77 492.494 322.903 493.37 322.874 494.265
C 323.21 494.843 324.236 493.327 324.542 493.008
C 325.562 491.944 327.065 490.828 328.621 491.218
C 329.059 491.753 329.17 492.333 329.362 492.989
C 329.226 493.266 327.61 493.456 327.201 493.641
C 325.6 494.365 323.926 495.417 323.14 497.077
C 321.684 500.149 323.581 504.465 322.871 507.696
C 322.179 507.795 321.621 507.667 321.046 507.281
C 320.108 502.572 320.419 496.731 320.831 491.958 Z"
opacity="1" fill="rgb(8,11,23)" fill-rule="evenodd" />
<path d="
M 333.589 420.65
C 335.614 420.616 337.663 420.749 339.683 420.623
C 340.31 424.164 339.759 428.215 339.808 431.818
C 339.825 433.079 339.546 434.769 339.977 435.956
C 345.762 435.391 351.777 436.266 357.599 435.983
C 357.645 430.871 357.638 425.749 357.585 420.637
C 359.126 420.62 360.659 420.617 362.199 420.644
C 362.695 420.653 363.541 420.508 363.877 420.871
C 363.139 429.435 363.85 438.402 363.887 447.008
C 363.897 449.425 363.88 451.844 363.934 454.26
C 363.954 455.13 363.762 456.324 364.178 457.126
C 362.023 457.157 359.845 457.136 357.665 457.208
C 357.84 452.137 357.21 447.002 357.538 441.947
C 351.813 441.705 345.78 441.465 340.071 441.972
C 339.026 445.279 339.814 450.024 339.82 453.499
C 339.822 454.565 340.148 456.086 339.768 457.07
C 337.76 457.039 335.744 457.01 333.728 457.116
C 333.249 444.981 334.27 432.784 333.589 420.65 Z"
opacity="1" fill="rgb(16,28,54)" fill-rule="evenodd" />
<path d="
M 338.161 491.314
C 341.73 491.095 342.947 498.123 344.117 500.826
C 344.345 501.353 345.283 504.561 345.685 504.377
C 347.33 501.48 348.202 497.843 349.466 494.733
C 350.26 492.783 350.547 491.243 352.979 491.395
C 352.079 495.691 349.36 499.938 347.803 504.044
C 347.155 505.756 347.119 507.624 345.022 507.902
C 343.897 507.247 343.349 504.687 342.919 503.501
C 341.451 499.451 339.146 495.499 338.161 491.314 Z"
opacity="1" fill="rgb(3,5,18)" fill-rule="evenodd" />
<path d="
M 355.93 486.071
C 355.999 485.819 356.068 485.567 356.137 485.315
C 357.075 485.247 358.152 485.201 358.607 486.152
C 358.716 486.908 358.82 487.621 358.271 488.212
C 357.595 488.48 357.146 488.481 356.442 488.335
C 355.845 487.685 355.819 486.925 355.93 486.071 Z"
opacity="1" fill="rgb(6,7,22)" fill-rule="evenodd" />
<path d="
M 355.912 491.4
C 356.588 491.3 357.311 491.238 357.988 491.335
C 357.716 496.687 358.635 502.416 357.672 507.701
C 357.075 507.963 356.651 507.789 356.047 507.629
C 355.682 504.455 355.889 501.191 355.837 498
C 355.802 495.828 355.437 493.534 355.912 491.4 Z"
opacity="1" fill="rgb(7,11,31)" fill-rule="evenodd" />
<path d="
M 362 503.879
C 363.509 504.16 364.701 505.195 366.187 505.575
C 368.259 506.107 373.56 505.061 371.15 501.818
C 368.931 498.832 362.33 500.702 362.34 495.515
C 362.341 494.976 362.452 494.465 362.66 493.967
C 363.893 491.018 367.632 490.186 370.419 491.268
C 371.434 491.662 374.148 492.712 373.429 494.131
C 371.076 494.48 369.06 492.572 366.58 493.172
C 364.912 493.577 363.909 495.261 364.861 496.809
C 367.704 499.188 374.939 498.3 373.864 503.907
C 372.705 507.532 368.048 508.529 364.846 507.213
C 363.725 506.752 360.781 505.171 362 503.879 Z"
opacity="1" fill="rgb(6,8,20)" fill-rule="evenodd" />
<path d="
M 371.95 222.094
C 373.034 214.491 374.659 206.932 375.277 199.267
C 378.958 198.863 382.803 199.098 386.507 199.078
C 393.23 199.042 399.96 199.024 406.682 199.078
C 407.453 200.346 406.836 203.006 406.83 204.499
C 406.812 208.999 406.857 213.5 406.833 218
C 406.826 219.305 406.843 220.607 406.866 221.91
C 406.873 222.294 407.073 223.329 406.861 223.631
C 399.44 223.885 391.936 223.487 384.507 223.449
C 380.469 223.429 375.738 224.064 371.787 223.231
C 371.857 222.458 371.802 222.837 371.95 222.094 Z"
opacity="1" fill="rgb(18,31,57)" fill-rule="evenodd" />
<path d="
M 376.964 486.087
C 376.995 485.891 377.026 485.694 377.057 485.498
C 377.924 485.168 378.506 485.231 379.357 485.574
C 379.83 486.264 379.742 487.025 379.433 487.769
C 378.805 488.192 378.228 488.269 377.483 488.306
C 376.816 487.841 376.926 486.83 376.964 486.087 Z"
opacity="1" fill="rgb(3,7,17)" fill-rule="evenodd" />
<path d="
M 377.425 491.964
C 377.477 491.847 377.529 491.73 377.581 491.614
C 378.211 491.425 378.804 491.423 379.458 491.411
C 379.436 495.263 379.355 499.124 379.333 502.98
C 379.327 504.05 379.84 506.481 379.232 507.363
C 379.089 507.569 377.776 507.428 377.525 507.431
C 376.928 505.231 377.23 502.576 377.27 500.314
C 377.318 497.551 377.057 494.703 377.425 491.964 Z"
opacity="1" fill="rgb(11,22,35)" fill-rule="evenodd" />
<path d="
M 379.929 420.928
C 380.014 420.824 380.098 420.719 380.183 420.614
C 389.338 420.317 398.543 420.546 407.709 420.556
C 408.236 422.289 407.83 424.602 407.821 426.409
C 406.56 427.207 403.217 426.595 401.74 426.594
C 396.578 426.589 391.4 426.723 386.242 426.656
C 386.333 429.813 386.394 433.015 386.266 436.17
C 390.968 436.422 395.791 436.201 400.505 436.162
C 401.539 436.153 404.771 435.651 405.428 436.352
C 405.279 438.128 405.487 439.947 405.619 441.713
C 399.207 442.104 392.698 441.659 386.276 441.812
C 386.025 445.054 386.427 448.356 386.237 451.611
C 393.533 451.263 400.963 451.463 408.263 451.612
C 408.645 453.451 408.061 455.453 408.313 457.314
C 401.679 456.643 394.668 457.244 387.999 457.255
C 385.545 457.259 382.491 457.783 380.113 457.223
C 379.761 445.163 379.865 432.993 379.929 420.928 Z"
opacity="1" fill="rgb(13,22,50)" fill-rule="evenodd" />
<path d="
M 382.436 491.448
C 383.23 491.363 384.054 491.277 384.853 491.334
C 385.118 489.85 384.372 488.304 384.806 486.836
C 385.498 486.706 386.101 486.618 386.801 486.701
C 387.019 487.962 386.683 490.2 387.204 491.272
C 388.391 491.159 389.756 491.087 390.928 491.336
C 390.996 491.989 391.085 492.638 391.144 493.293
C 389.884 493.336 388.622 493.333 387.362 493.368
C 386.765 494.357 387.036 495.946 387.109 497.078
C 387.279 499.711 386.767 502.411 387.406 505.018
C 388.302 505.814 390.475 505.483 391.575 505.362
C 392.059 506.742 390.764 507.694 389.531 507.78
C 387.983 507.887 386.174 507.225 385.43 505.787
C 384.226 503.461 384.97 499.353 384.964 496.818
C 384.962 495.977 385.205 494.217 384.737 493.511
C 383.367 492.99 382.015 493.395 382.436 491.448 Z"
opacity="1" fill="rgb(5,6,20)" fill-rule="evenodd" />
<path d="
M 393.946 496.58
C 395.669 490.863 402.88 488.938 406.752 493.822
C 407.806 495.151 408.71 496.688 408.782 498.422
C 408.8 498.872 409.013 499.742 408.606 500.026
C 404.366 499.943 400.008 499.533 395.787 500.028
C 395.001 503.843 400.151 506.663 403.326 505.573
C 405.021 504.991 405.69 503.032 407.656 503.519
C 408.306 506.233 403.519 507.748 401.581 507.72
C 395.505 507.631 392.591 501.986 393.946 496.58 Z
M 395.981 497.086
C 395.813 497.709 395.905 497.363 395.708 498.124
C 398.809 498.904 403.17 498.368 406.376 498.266
C 406.475 497.79 406.058 497.455 405.908 497.018
C 405.176 494.881 403.595 492.673 401.096 492.748
C 398.28 492.833 396.905 494.632 395.981 497.086 Z"
opacity="1" fill="rgb(6,7,19)" fill-rule="evenodd" />
<path d="
M 411.499 496.575
C 413.024 492.999 416.021 489.874 420.224 491.518
C 421.689 492.092 422.5 493.407 423.773 494.114
C 424.51 491.443 423.755 488.174 423.942 485.405
C 424.403 484.89 425.379 484.97 425.949 485.302
C 425.836 490.857 426.219 496.445 425.986 501.994
C 425.92 503.566 426.484 506.245 425.707 507.617
C 425.316 507.752 425.063 507.593 424.678 507.462
C 424.562 507.142 424.284 504.861 424.218 504.829
C 422.761 506.112 420.997 507.488 418.968 507.632
C 412.997 508.055 410.006 501.718 411.499 496.575 Z
M 413.473 497.081
C 412.665 499.797 413.479 503.309 415.872 504.966
C 419.02 507.146 423.006 504.534 423.872 501.255
C 424.415 499.197 424.08 496.499 422.56 494.921
C 419.621 491.87 414.685 493.01 413.473 497.081 Z"
opacity="1" fill="rgb(4,4,18)" fill-rule="evenodd" />
<path d="
M 419.288 199.251
C 427 198.855 434.784 199.117 442.508 199.106
C 457.174 199.084 471.841 199.082 486.507 199.085
C 500.007 199.089 513.508 199.125 527.008 199.135
C 534.194 199.14 541.483 198.799 548.656 199.188
C 548.445 204.767 548.627 210.411 548.658 216.002
C 548.671 218.191 548.038 221.593 548.76 223.648
C 536.721 224.074 524.561 223.642 512.511 223.645
C 508.843 223.645 505.173 223.616 501.506 223.667
C 499.706 223.691 497.746 223.463 495.996 223.896
C 496.304 230.384 495.953 236.999 495.967 243.503
C 495.996 257.169 496.073 270.834 496.136 284.504
C 496.21 300.336 496.213 316.169 496.124 332.001
C 496.082 339.523 496.372 347.134 495.984 354.636
C 495.588 354.948 494.409 354.723 493.912 354.723
C 492.443 354.723 490.974 354.716 489.505 354.713
C 485.338 354.704 481.171 354.693 477.005 354.7
C 474.979 354.704 472.691 355.046 470.706 354.708
C 471.148 344.344 470.732 333.879 470.732 323.504
C 470.732 302.005 470.723 280.507 470.676 259.008
C 470.65 247.264 470.283 235.45 470.638 223.716
C 464.487 222.932 457.721 223.684 451.508 223.678
C 440.886 223.667 430.158 223.239 419.548 223.739
C 419.25 223.375 419.405 222.482 419.398 221.995
C 419.374 220.496 419.394 218.994 419.39 217.495
C 419.374 211.441 419.696 205.291 419.288 199.251 Z"
opacity="1" fill="rgb(238,109,33)" fill-rule="evenodd" />
<path d="
M 437.727 504.224
C 439.482 503.965 440.761 505.253 442.453 505.575
C 444.36 505.938 449.48 504.815 446.962 501.937
C 444.437 499.05 436.854 500.44 438.371 494.526
C 439.269 491.024 443.441 490.484 446.396 491.422
C 447.397 491.74 450.055 492.706 448.877 494.081
C 447.2 494.68 445.413 493.086 443.709 493.025
C 441.988 492.962 438.821 494.908 440.9 496.812
C 443.319 499.026 451.516 498.988 449.358 504.188
C 448.01 507.437 444.293 508.232 441.202 507.323
C 439.577 506.845 437.512 506.164 437.727 504.224 Z"
opacity="0.996" fill="rgb(5,4,16)" fill-rule="evenodd" />
<path d="
M 438.627 420.654
C 448.51 420.827 458.796 421.337 468.653 420.619
C 468.642 422.548 468.716 424.551 468.436 426.462
C 464.538 426.501 460.64 426.457 456.746 426.606
C 456.761 433.57 456.684 440.535 456.684 447.499
C 456.684 450.587 456.221 454.152 456.767 457.189
C 455.183 457.302 453.579 457.093 451.995 457.182
C 451.448 457.213 450.725 457.5 450.282 457.14
C 450.86 447.07 450.446 436.743 450.325 426.656
C 446.445 426.485 442.528 426.859 438.658 426.623
C 438.615 424.628 438.579 422.65 438.627 420.654 Z"
opacity="1" fill="rgb(14,24,49)" fill-rule="evenodd" />
<path d="
M 452.453 485.337
C 453.359 485.109 454.197 485.113 455.009 485.579
C 455.234 486.405 455.438 486.977 455.232 487.84
C 454.425 488.063 453.713 488.031 452.893 487.896
C 452.397 487.048 452.393 486.302 452.453 485.337 Z"
opacity="1" fill="rgb(3,6,19)" fill-rule="evenodd" />
<path d="
M 452.948 492.588
C 453.36 491.413 453.969 491.655 455.047 491.466
C 455.504 491.942 454.944 494.256 454.958 494.989
C 455.009 497.759 454.906 500.531 454.916 503.301
C 454.92 504.541 455.259 506.14 454.832 507.322
C 454.288 507.376 453.823 507.317 453.281 507.269
C 452.6 505.36 452.884 503.003 452.892 501.004
C 452.903 498.255 452.581 495.309 452.948 492.588 Z"
opacity="1" fill="rgb(6,6,18)" fill-rule="evenodd" />
<path d="
M 457.404 491.879
C 458.195 491.268 459.42 491.629 460.404 491.431
C 460.591 489.931 460.335 488.33 460.471 486.799
C 461.159 486.714 461.917 486.572 462.573 486.821
C 462.574 488.294 462.831 489.748 462.677 491.228
C 463.919 491.487 465.384 491.279 466.652 491.254
C 466.729 491.936 466.748 492.613 466.733 493.298
C 465.464 493.259 464.133 493.313 462.863 493.394
C 462.425 494.575 462.684 496.225 462.708 497.494
C 462.754 499.918 462.419 502.615 463.032 504.976
C 463.904 505.63 465.691 505.267 466.724 505.133
C 467.038 505.705 466.907 506.486 466.508 506.992
C 464.676 508.016 462.486 507.234 461.112 505.825
C 459.977 503.363 460.644 499.459 460.637 496.789
C 460.636 496.093 461.046 493.807 460.408 493.374
C 459.418 493.362 458.463 493.152 457.491 493.04
C 457.367 492.393 457.417 492.778 457.404 491.879 Z"
opacity="1" fill="rgb(5,7,24)" fill-rule="evenodd" />
<path d="
M 469.477 496.565
C 470.305 494.71 471.493 492.631 473.409 491.693
C 478.802 489.054 484.763 494.573 483.688 500.111
C 479.795 501.397 475.014 499.27 471.051 500.608
C 472.242 503.897 474.88 506.815 478.813 505.553
C 480.104 505.139 480.838 503.901 482.114 503.439
C 483.078 503.561 483.014 504.531 482.534 505.211
C 481.67 506.439 480.15 506.991 478.758 507.346
C 472.433 508.959 467.741 502.328 469.477 496.565 Z
M 471.481 497.068
C 471.28 497.675 471.394 497.34 471.136 498.072
C 471.891 498.651 473.082 498.321 474.007 498.334
C 476.573 498.37 479.275 498.013 481.818 498.325
C 482.097 495.355 478.708 492.33 475.883 492.948
C 473.828 493.397 472.352 495.266 471.481 497.068 Z"
opacity="1" fill="rgb(4,3,18)" fill-rule="evenodd" />
<path d="
M 482.196 420.713
C 486.584 420.542 490.996 420.688 495.39 420.636
C 499.423 420.588 503.83 420.395 507.397 422.608
C 513.435 426.357 514.222 435.475 509.561 440.668
C 508.072 442.326 505.752 443.238 503.657 443.834
C 505.506 446.595 507.658 449.192 509.632 451.87
C 510.965 453.678 512.199 456.002 513.883 457.501
C 513.522 457.731 512.459 457.324 512.007 457.34
C 510.103 457.404 508.014 457.61 506.125 457.396
C 505.067 456.433 504.341 454.964 503.481 453.816
C 501.242 450.824 499.249 447.737 497.138 444.667
C 494.305 444.734 491.477 444.637 488.643 444.792
C 488.278 448.911 488.67 453.106 488.382 457.238
C 486.88 457.263 483.462 457.857 482.204 457.187
C 482.751 445.054 482.043 432.852 482.196 420.713 Z
M 488.491 426.892
C 488.726 430.911 488.602 434.922 488.507 438.944
C 491.076 439.288 493.782 439.153 496.371 439.084
C 498.169 439.035 500.039 439.039 501.805 438.666
C 506.296 437.718 507.336 431.926 504.701 428.581
C 502.183 425.385 496.107 426.568 492.519 426.558
C 491.603 426.555 489.108 426.253 488.491 426.892 Z"
opacity="1" fill="rgb(11,22,48)" fill-rule="evenodd" />
<path d="
M 486.5 503.45
C 486.69 503.491 486.88 503.533 487.07 503.575
C 489.539 504.74 494.017 507.698 496.011 504.088
C 496.671 502.36 495.247 501.238 493.735 500.706
C 491.382 499.879 486.894 499.237 486.793 495.961
C 486.624 490.487 494.428 489.953 497.399 493.184
C 497.456 493.426 497.665 494.121 497.403 494.34
C 496.728 494.903 495.085 493.71 494.494 493.467
C 492.505 492.651 489.482 493.062 488.959 495.572
C 488.675 496.937 490.978 497.754 491.91 498.045
C 495.136 499.051 500.342 500.819 497.643 505.238
C 495.947 508.016 492.139 508.215 489.373 507.114
C 488.039 506.583 485.365 505.182 486.5 503.45 Z"
opacity="1" fill="rgb(4,4,18)" fill-rule="evenodd" />
<path d="
M 526.862 420.836
C 528.687 420.046 531.221 420.66 533.182 420.572
C 533.402 428.705 533.354 436.86 533.364 444.998
C 533.369 449.001 533.833 453.286 533.403 457.259
C 531.343 457.224 529.188 457.438 527.146 457.205
C 526.978 445.114 526.532 432.931 526.862 420.836 Z"
opacity="1" fill="rgb(15,26,50)" fill-rule="evenodd" />
<path d="
M 549.977 421.61
C 549.988 421.405 550 421.201 550.011 420.996
C 551.687 420.052 554.599 420.671 556.508 420.666
C 562.489 420.65 569.807 419.623 574.691 423.816
C 580.106 428.466 580.257 437.976 574.701 442.579
C 569.322 447.035 562.686 444.923 556.451 446.048
C 556.335 449.734 556.104 453.533 556.313 457.214
C 554.244 457.159 552.119 457.109 550.053 457.238
C 549.889 449.639 550.074 442.013 550.063 434.411
C 550.058 430.165 549.663 425.853 549.977 421.61 Z
M 556.252 426.699
C 556.324 431.179 556.49 435.743 556.208 440.214
C 560.254 440.429 566.183 441.142 569.738 438.813
C 573.643 436.255 573.293 429.522 569.143 427.405
C 565.564 425.58 560.131 426.649 556.252 426.699 Z"
opacity="1" fill="rgb(13,24,51)" fill-rule="evenodd" />

</svg>